<?xml version="1.0" encoding="utf-8"?>
<!-- Generator: Adobe Illustrator 24.0.1, SVG Export Plug-In . SVG Version: 6.00 Build 0)  -->
<svg version="1.1" xmlns="http://www.w3.org/2000/svg" xmlns:xlink="http://www.w3.org/1999/xlink" x="0px" y="0px"
	 viewBox="0 0 215.1 162.9" style="enable-background:new 0 0 215.1 162.9;" xml:space="preserve">
<style type="text/css">
	.st0{display:none;}
	.st1{display:inline;}
	.st2{fill:#F9F1E1;}
	.st3{fill:#EAF4FE;}
	.st4{fill:none;stroke:#0561FC;stroke-width:6.8376;stroke-miterlimit:10;}
	.st5{fill:#0561FC;}
	.st6{fill:#C5E1F9;}
	.st7{fill:#7EB3FF;}
	.st8{fill:#B5D5EA;}
	.st9{fill:#E1EBF4;}
	.st10{fill:#9AC7F7;}
	.st11{fill:none;stroke:#0561FC;stroke-width:6.8376;}
	.st12{fill:none;stroke:#7EB3FF;stroke-width:6.8376;}
	.st13{fill:none;stroke:#0561FC;stroke-width:6.8376;stroke-linecap:round;}
	.st14{fill:none;stroke:#0561FC;stroke-width:7.1001;}
	.st15{fill:#B6D9EF;}
	.st16{fill:none;stroke:#9AC7F7;stroke-width:6.8376;}
	.st17{fill:none;stroke:#0561FC;stroke-width:6.8376;stroke-linejoin:bevel;}
	.st18{fill:none;stroke:#0561FC;stroke-width:6.8376;stroke-linecap:round;stroke-linejoin:round;}
	.st19{fill:none;stroke:#0561FC;stroke-width:5.0237;}
	.st20{fill:none;stroke:#0450CF;stroke-width:6.8376;}
	.st21{fill:none;stroke:#C5E1F9;stroke-width:6.8376;}
	.st22{fill:#FFBF0D;}
	.st23{fill:#B2D2EA;}
	.st24{fill:none;stroke:#0561FC;stroke-width:6.9311;}
	.st25{fill:none;stroke:#0561FC;stroke-width:6.8376;stroke-linecap:round;stroke-miterlimit:10;}
	.st26{fill:#FFFFFF;}
	.st27{fill:#FFFFFF;stroke:#0561FC;stroke-width:6.8376;}
</style>
<g id="Layer_2">
	<g class="st0">
		<g class="st1">
			<rect x="0.7" y="-42.4" class="st2" width="218.8" height="218.8"/>
		</g>
	</g>
</g>
<g id="Layer_3">
</g>
<g id="Layer_4">
	<g>
		<path class="st14" d="M211.6,33.6v110.8c0,8.3-6.7,15-15,15H18.6c-8.3,0-15-6.7-15-15V33.6"/>
		<path class="st10" d="M199.9,0H15.2c-8.3,0-15,6.7-15,15v14.9H215V15C215,6.7,208.3,0,199.9,0z"/>
		<line class="st14" x1="21.3" y1="15.9" x2="16.2" y2="15.9"/>
		<line class="st14" x1="32.1" y1="15.9" x2="27.1" y2="15.9"/>
		<line class="st14" x1="43" y1="15.9" x2="37.9" y2="15.9"/>
		<polyline class="st14" points="82,113.1 64.7,103.1 47.4,93.1 64.7,83.1 82,73.1 		"/>
		<polyline class="st14" points="123.2,113.1 140.5,103.1 157.8,93.1 140.5,83.1 123.2,73.1 		"/>
		<line class="st14" x1="115.5" y1="59.7" x2="89.1" y2="126.6"/>
	</g>
</g>
</svg>
